<svg width="15" height="15" viewBox="0 0 15 15" fill="none" xmlns="http://www.w3.org/2000/svg">
<path d="M4.375 3.125H13.125V4.375H4.375V3.125ZM4.375 8.125V6.875H13.125V8.125H4.375ZM2.5 2.8125C2.74864 2.8125 2.9871 2.91127 3.16291 3.08709C3.33873 3.2629 3.4375 3.50136 3.4375 3.75C3.4375 3.99864 3.33873 4.2371 3.16291 4.41291C2.9871 4.58873 2.74864 4.6875 2.5 4.6875C2.25136 4.6875 2.0129 4.58873 1.83709 4.41291C1.66127 4.2371 1.5625 3.99864 1.5625 3.75C1.5625 3.50136 1.66127 3.2629 1.83709 3.08709C2.0129 2.91127 2.25136 2.8125 2.5 2.8125ZM2.5 6.5625C2.74864 6.5625 2.9871 6.66127 3.16291 6.83709C3.33873 7.0129 3.4375 7.25136 3.4375 7.5C3.4375 7.74864 3.33873 7.9871 3.16291 8.16291C2.9871 8.33873 2.74864 8.4375 2.5 8.4375C2.25136 8.4375 2.0129 8.33873 1.83709 8.16291C1.66127 7.9871 1.5625 7.74864 1.5625 7.5C1.5625 7.25136 1.66127 7.0129 1.83709 6.83709C2.0129 6.66127 2.25136 6.5625 2.5 6.5625ZM4.375 11.875V10.625H13.125V11.875H4.375ZM2.5 10.3125C2.74864 10.3125 2.9871 10.4113 3.16291 10.5871C3.33873 10.7629 3.4375 11.0014 3.4375 11.25C3.4375 11.4986 3.33873 11.7371 3.16291 11.9129C2.9871 12.0887 2.74864 12.1875 2.5 12.1875C2.25136 12.1875 2.0129 12.0887 1.83709 11.9129C1.66127 11.7371 1.5625 11.4986 1.5625 11.25C1.5625 11.0014 1.66127 10.7629 1.83709 10.5871C2.0129 10.4113 2.25136 10.3125 2.5 10.3125Z" fill="#959595" fill-opacity="0.6"/>
</svg>
