<svg width="24" height="24" viewBox="0 0 24 24" fill="none" xmlns="http://www.w3.org/2000/svg">
<path d="M20.98 2.56C20.3393 1.92668 19.4969 1.53787 18.5993 1.46114C17.7017 1.38441 16.8056 1.62461 16.0667 2.14C18.4419 3.12891 20.3822 4.93907 21.5333 7.24C21.9777 6.51038 22.1646 5.65287 22.0643 4.80451C21.964 3.95614 21.5822 3.16587 20.98 2.56Z" fill="#4F55A1"/>
<path d="M7.61333 2.28667C6.87749 1.70225 5.95318 1.4074 5.01484 1.45776C4.07651 1.50811 3.18906 1.90019 2.51999 2.56C1.85645 3.22794 1.46345 4.11775 1.41668 5.05809C1.36991 5.99844 1.67267 6.92285 2.26666 7.65334C3.33635 5.27336 5.23736 3.36523 7.61333 2.28667Z" fill="#4F55A1"/>
<path d="M10.9333 2.72667C9.19275 2.93 7.54457 3.61926 6.17741 4.71556C4.81026 5.81186 3.77937 7.27091 3.20272 8.92574C2.62607 10.5806 2.52695 12.3643 2.91672 14.0728C3.30649 15.7814 4.16939 17.3457 5.40667 18.5867L3.70667 20.2867C3.64495 20.3497 3.59624 20.4243 3.56334 20.5061C3.53044 20.588 3.51399 20.6755 3.51491 20.7637C3.51584 20.852 3.53414 20.9391 3.56875 21.0203C3.60337 21.1014 3.65363 21.1749 3.71667 21.2367C3.7797 21.2984 3.85428 21.3471 3.93613 21.38C4.01799 21.4129 4.10552 21.4293 4.19374 21.4284C4.28195 21.4275 4.36912 21.4092 4.45027 21.3746C4.53141 21.34 4.60495 21.2897 4.66667 21.2267L6.44 19.4533C8.06169 20.6805 10.042 21.3401 12.0757 21.3305C14.1093 21.3209 16.0834 20.6425 17.6933 19.4L19.52 21.2267C19.6475 21.3359 19.8116 21.393 19.9794 21.3865C20.1472 21.38 20.3063 21.3104 20.425 21.1917C20.5438 21.073 20.6133 20.9138 20.6198 20.746C20.6263 20.5783 20.5692 20.4142 20.46 20.2867L18.6667 18.52C20.0124 17.1415 20.8986 15.3803 21.2037 13.4781C21.5087 11.5759 21.2177 9.62592 20.3705 7.89571C19.5233 6.16551 18.1614 4.73986 16.4718 3.81438C14.7821 2.88891 12.8475 2.50896 10.9333 2.72667ZM13.0533 19.9333C11.3964 20.1504 9.71309 19.8431 8.23971 19.0546C6.76633 18.2661 5.57686 17.036 4.83825 15.537C4.09965 14.038 3.849 12.3453 4.12148 10.6966C4.39397 9.04788 5.17592 7.52587 6.35756 6.34423C7.5392 5.16259 9.06121 4.38064 10.7099 4.10815C12.3587 3.83566 14.0513 4.08632 15.5503 4.82492C17.0493 5.56353 18.2794 6.753 19.0679 8.22638C19.8564 9.69976 20.1637 11.3831 19.9467 13.04C19.7177 14.788 18.9178 16.4114 17.6713 17.6579C16.4247 18.9045 14.8013 19.7044 13.0533 19.9333Z" fill="#4F55A1"/>
<path d="M16.6133 13.56L12.5733 11.56V6.33334C12.5733 6.17421 12.5101 6.02159 12.3976 5.90907C12.2851 5.79655 12.1325 5.73334 11.9733 5.73334C11.8142 5.73334 11.6616 5.79655 11.5491 5.90907C11.4366 6.02159 11.3733 6.17421 11.3733 6.33334V12.3333L16.08 14.6667C16.2232 14.7365 16.3883 14.7466 16.539 14.6947C16.6896 14.6428 16.8135 14.5332 16.8833 14.39C16.9532 14.2468 16.9633 14.0817 16.9114 13.931C16.8595 13.7804 16.7499 13.6565 16.6067 13.5867L16.6133 13.56Z" fill="#4F55A1"/>
</svg>
